<svg xmlns="http://www.w3.org/2000/svg" viewBox="0 0 180.96 53.94"><defs><style>.cls-1{fill:#fff;}</style></defs><g id="Calque_2" data-name="Calque 2"><g id="Calque_1-2" data-name="Calque 1"><polygon class="cls-1" points="3.29 13.02 3.29 41.36 0 44.64 0 9.73 3.29 13.02"/><polygon class="cls-1" points="10.73 9.91 10.73 44.38 7.44 41.1 7.44 13.19 10.73 9.91"/><rect class="cls-1" x="1.69" y="1.95" width="7.51" height="7.51" transform="translate(-2.43 5.52) rotate(-45)"/><rect class="cls-1" x="1.74" y="44.88" width="7.51" height="7.51" transform="translate(35.99 10.36) rotate(45)"/><polygon class="cls-1" points="173.44 13.02 173.44 41.36 170.16 44.64 170.16 9.73 173.44 13.02"/><polygon class="cls-1" points="180.88 9.91 180.88 44.38 177.59 41.1 177.59 13.19 180.88 9.91"/><rect class="cls-1" x="171.85" y="1.95" width="7.51" height="7.51" transform="translate(47.4 125.84) rotate(-45)"/><rect class="cls-1" x="171.89" y="44.88" width="7.51" height="7.51" transform="translate(85.83 -109.96) rotate(45)"/><polygon class="cls-1" points="36.63 53.1 31.15 47.93 36.33 42.5 41.82 47.62 36.63 53.1"/><polygon class="cls-1" points="79.64 10.8 74.05 5.63 79.32 0 84.82 5.09 79.64 10.8"/><polygon class="cls-1" points="71.84 7.99 41.34 41.68 38.9 39.48 64.77 10.9 36.03 10.9 36.03 7.62 71.46 7.62 71.84 7.99"/><polygon class="cls-1" points="36.03 0.35 36.03 3.64 70.76 3.64 74.05 0.35 36.03 0.35"/><polygon class="cls-1" points="80.93 43.56 80.93 46.85 46.22 46.85 44.43 44.96 74.78 11.44 77.22 13.64 50.12 43.56 80.93 43.56"/><polygon class="cls-1" points="80.93 50.31 80.93 53.6 41.38 53.6 44.67 50.31 80.93 50.31"/><rect class="cls-1" x="103.35" y="1.87" width="7.51" height="7.51" transform="translate(35.35 -74.08) rotate(45)"/><polygon class="cls-1" points="150.08 48.52 144.76 53.83 141.12 50.18 139.46 48.52 141.12 46.86 144.76 43.21 150.08 48.52"/><polygon class="cls-1" points="140.27 53.6 101.41 53.6 101.41 9.74 104.69 13.02 104.69 50.31 136.98 50.31 140.27 53.6"/><polygon class="cls-1" points="140.14 43.56 140.07 43.63 136.87 46.85 109.03 46.85 109.03 13.51 112.3 10.23 112.31 43.56 140.14 43.56"/></g></g></svg>